<?xml version="1.0" encoding="UTF-8"?>
<svg id="Layer_1" xmlns="http://www.w3.org/2000/svg" version="1.1" viewBox="0 0 1186.23 811.47">
  <!-- Generator: Adobe Illustrator 30.1.0, SVG Export Plug-In . SVG Version: 2.1.1 Build 109)  -->
  <defs>
    <style>
      .st0 {
        fill: #fff;
      }

      .st1 {
        fill: #125630;
      }

      .st2 {
        fill: #43b86a;
      }

      .st3 {
        opacity: .5;
      }
    </style>
  </defs>
  <g class="st3">
    <path class="st2" d="M944.91,243.08c-31.69-57.95-116.78-124.65-162.94-99.41-46.15,25.24-35.89,132.87-4.19,190.82,28.63,52.34,70.74,56.83,112.63,38.61,59.67,134.57,183,377.71,190.54,391.51,10.35,18.93,32.75,26.61,50.04,17.15,17.28-9.45,22.9-32.46,12.55-51.39-7.54-13.79-145.75-248.8-226.87-371.64,37.94-25.44,56.87-63.33,28.24-115.67v.02ZM935.37,334.05c5.39-20.54,1.94-45.31-14.2-74.83-24.05-43.97-73.7-93.76-116.96-112.51,45.5,4.27,105.09,55.84,130.21,101.76,19.11,34.93,16.43,63.24.96,85.57h-.01Z"/>
    <g>
      <path class="st2" d="M978.16,280.6h0c25.41,19.41,39.21,50.39,36.67,82.26-2.5,31.31-4.91,65.64-7.18,100.56,15.67,25.48,31.37,51.28,46.34,76.06-1.33-59.31-3.13-122.12-5.47-176.01-1.39-31.94,13.52-62.4,39.61-80.88,21.19-15.01,32.82-40.14,30.53-66l-12.9-146.1c-.21-2.38-2.18-4.22-4.57-4.26h0c-2.58-.05-4.71,2.01-4.75,4.59l-3.1,171.54-14.89-.27-1.03-171.73c-.02-2.54-2.05-4.6-4.59-4.64l-1.06-.02c-2.52-.05-4.63,1.92-4.75,4.44l-8.43,171.59-14.89-.27-.49-171.7c0-2.54-2.04-4.61-4.59-4.66l-3.16-.06c-2.54-.05-4.65,1.95-4.75,4.49l-6.69,171.57-14.89-.27-2.23-171.78c-.03-2.52-2.06-4.56-4.59-4.61l-1.06-.02c-2.54-.05-4.64,1.94-4.75,4.47l-7.23,171.58-14.89-.27,3.1-171.54c.05-2.58-2.01-4.71-4.59-4.75-2.39-.04-4.42,1.72-4.72,4.09l-18.17,145.54c-3.22,25.77,7.49,51.3,28.13,67.06h.03Z"/>
      <path class="st2" d="M1001.55,563.84c-5.6,98.49-9.36,181.76-9.48,188.82-.32,17.98,13.99,32.82,31.97,33.15,17.98.33,32.82-13.99,33.15-31.97.08-4.17-.15-34.94-.77-79.74-15.28-30.36-34.52-68.92-54.87-110.26h0Z"/>
    </g>
    <g>
      <path class="st2" d="M497.92,179.6c-167.4,0-303.11,135.71-303.11,303.11s135.71,303.11,303.11,303.11,303.11-135.71,303.11-303.11-135.71-303.11-303.11-303.11h0Z"/>
      <path class="st2" d="M497.92,624.48c-78.17,0-141.77-63.6-141.77-141.77s63.6-141.77,141.77-141.77,141.77,63.6,141.77,141.77-63.6,141.77-141.77,141.77h0Z"/>
    </g>
  </g>
  <path class="st0" d="M497.92,265.39c29.35,0,57.81,5.74,84.58,17.07,25.88,10.94,49.12,26.62,69.08,46.58,19.97,19.97,35.64,43.21,46.58,69.08,11.33,26.78,17.07,55.23,17.07,84.58s-5.74,57.81-17.07,84.58c-10.94,25.88-26.62,49.12-46.58,69.08s-43.21,35.64-69.08,46.58c-26.78,11.33-55.23,17.07-84.58,17.07s-57.81-5.74-84.58-17.07c-25.88-10.94-49.12-26.62-69.08-46.58s-35.64-43.21-46.58-69.08c-11.33-26.78-17.07-55.23-17.07-84.58s5.74-57.81,17.07-84.58c10.94-25.88,26.62-49.12,46.58-69.08s43.21-35.64,69.08-46.58c26.78-11.33,55.23-17.07,84.58-17.07M497.92,240.39c-133.83,0-242.32,108.49-242.32,242.32s108.49,242.32,242.32,242.32,242.32-108.49,242.32-242.32-108.49-242.32-242.32-242.32h0Z"/>
  <g>
    <path class="st1" d="M811.92,555.12c0,23.2,10.8,30.6,24.8,30.6s22.2-10.4,22.2-30.6v-80.6h33v82.4c0,28.6-15.2,54.2-57.8,54.2s-55-25.8-55-54.2v-82.4h32.8v80.6Z"/>
    <path class="st1" d="M902.72,511.52c0-23.8,21.2-38.8,45-38.8,19.2,0,36,6.8,45,13l-11.6,22c-6.2-3.4-18.8-11-29-11-9.2,0-13.8,4.4-13.8,10.2.6,8.8,6.8,13.8,23.8,21,21.4,9,31.8,18.6,31.8,39,0,24.6-18.4,44.2-47.6,44.2-20.8,0-38-8.6-47.6-14.4l10.8-23.6c3.8,2.6,22,13.8,32.6,13.8,11.2,0,16.2-5.4,16.2-15s-7-13.4-18.8-18.2c-23.2-9.6-36.8-20.6-36.8-42.2h0Z"/>
    <path class="st1" d="M1024.52,611.92c-11.2,0-17.6-8-17.6-17.4,0-10.4,6.4-18.4,18-18.4s17.4,7.4,17.4,17.6-6.2,18.2-17.8,18.2h0ZM1045.72,474.53l-5.8,91.4h-29v-91.4h34.8Z"/>
  </g>
  <path class="st1" d="M505.31,309.18c7.34,0,12.43,3.7,16.15,6.4,1.75,1.27,3.72,2.71,4.69,2.71h.11c.62-.08,1.23-.12,1.81-.12,5.52,0,8.51,3.55,8.94,6.85.37,2.77-.79,5.43-3.18,7.27-1.66,1.29-3.89,2.15-6.44,2.48-8.53,1.13-22.58,8.72-44.17,35.32,12.93-9.11,25.9-17.03,38.79-23.68,24.97-12.9,49.65-21.02,73.35-24.14,2.69-.35,5.34-.53,7.89-.53,15.33,0,24.42,6.5,28.79,9.62.62.44,1.16.83,1.55,1.08.39.22.76.42,1.13.62,3.93,2.15,8.38,4.59,9.39,12.29,5.55,42.04-53,116.68-120.22,155.05,11.97,6.58,24.25,13.86,36.19,20.95,30.62,18.17,62.29,36.96,78.63,36.96.79,0,1.54-.05,2.24-.14,29.64-3.91,45.82-39.15,45.98-39.5l.24-.53.36-.46c.8-1.04,2.5-2.84,4.87-3.16.26-.03.52-.05.77-.05.83,0,4.99.27,5.7,5.62.36,2.76-.44,5.4-2.15,7.2-6.48,8.59-7.26,16.47-8.01,24.09-.66,6.64-1.33,13.5-5.98,19.55-10.48,13.66-28.02,36.53-58.19,40.51-1.41.19-2.87.28-4.36.28-24.88,0-56.9-26.03-90.8-53.59-17.01-13.83-34.58-28.11-50.73-38.45-7.16,2.13-14.07,3.61-21.04,4.53-2.24.3-4.51.45-6.74.45-18.46,0-32.65-10.06-33.85-19.09-1.05-7.94,6.99-15.86,10.5-18.9,7.09-6.15,15.7-10.27,23.64-11.32,1.49-.2,3.09-.3,4.74-.3,5.4,0,11.74,1.05,18.87,3.12,47.36-18.42,83.7-52.39,101.25-71.13,26.61-28.42,40-53.53,39.47-63.41-.53-.17-1.61-.4-3.59-.4h0c-1.47,0-3.19.13-5.12.38-31.17,4.11-112.32,41.67-167.54,113.66-7.4,9.65-24.69,39.86-39.73,71.86-17.4,37.02-26.5,64.98-25.01,76.75.14.51.8,1.87,1.25,2.78,1.2,2.45,2.56,5.23,2.94,8.11.48,3.66-.8,6.06-1.96,7.44-1.72,2.04-4.28,3.26-7.81,3.72-.68.09-1.38.14-2.09.14-7.69,0-16.89-5.59-25.26-15.33-7.56-8.81-12.92-19.33-14-27.47-1.18-8.94,1.27-21.23,7.27-36.53,5.7-14.52,14.54-31.36,25.56-48.71,19.14-39.3,47.16-85.58,74.99-123.85,21.27-29.24,50.14-64.57,66.92-66.78,1-.13,2-.2,2.98-.2M505.31,297.18c-1.5,0-3.03.1-4.55.3-10.9,1.44-30.54,10.43-75.05,71.62-28.07,38.59-56.36,85.29-75.78,125.05-11.26,17.78-20.32,35.12-26.24,50.18-6.85,17.45-9.47,31.35-8,42.48,1.38,10.48,7.66,23.08,16.79,33.72,10.8,12.58,23.01,19.52,34.36,19.52,1.23,0,2.46-.08,3.66-.24,6.54-.86,11.72-3.51,15.41-7.87,3.85-4.56,5.52-10.51,4.69-16.75-.64-4.83-2.62-8.87-4.06-11.82-.05-.1-.12-.24-.19-.4.02-7.23,5.02-28.28,24.03-68.74,1.58-3.36,3.17-6.67,4.76-9.92,1.82,1.6,3.86,3.1,6.1,4.46,8.4,5.09,18.92,7.9,29.62,7.9,2.75,0,5.55-.18,8.31-.55,5.82-.77,11.57-1.89,17.43-3.41,14.39,9.7,30.03,22.41,45.2,34.74,35.6,28.94,69.22,56.28,98.37,56.28,2.01,0,4-.13,5.93-.38,35.09-4.63,55.29-30.96,66.14-45.1,6.73-8.77,7.65-18.14,8.4-25.68.68-6.89,1.18-11.91,5.36-17.65,3.83-4.39,5.56-10.31,4.76-16.38-1.46-11.04-10.15-16.06-17.6-16.06-.78,0-1.58.05-2.36.16-4.94.66-9.49,3.41-12.82,7.76l-.35.46-.86,1.12-.57,1.28-.21.47c-.46.98-14.19,29.61-36.62,32.57-.08.01-.3.03-.67.03-3.66,0-11.58-1.8-28.54-10.37-13.42-6.78-28.95-15.99-43.96-24.9-6.21-3.68-12.52-7.43-18.85-11.11,27.3-18.4,53.36-42.55,73.4-68.3,14.96-19.22,39.43-56.18,35.25-87.84-1.81-13.73-11.07-18.81-15.52-21.25l-.04-.02c-.19-.11-.39-.22-.6-.33-.23-.16-.57-.41-.83-.59-4.97-3.55-16.59-11.86-35.77-11.86-3.07,0-6.25.21-9.46.64-14.8,1.95-29.92,5.73-45.21,11.27-1.83-7.76-8.8-15.09-19.65-15.46-.15-.11-.29-.21-.41-.3-4.18-3.04-11.96-8.7-23.21-8.7h0v-.03ZM449.64,463.44c29.42-37.97,64.38-63.46,88.63-78.21,24.76-15.05,45.92-23.71,59.96-27.57-5.25,9.76-14.89,24.01-30.96,41.17-16.32,17.43-49.79,48.83-93.23,66.71-6.62-1.66-12.7-2.49-18.13-2.49-2.16,0-4.27.13-6.27.39h0Z"/>
  <g>
    <path class="st1" d="M366.85,628.05c-17.33,0-37.13-26.7-39.25-42.8-2.3-17.41,9.97-49.26,32.83-85.23,19.14-39.3,47.16-85.58,74.99-123.85,21.27-29.25,50.14-64.57,66.92-66.78,1-.13,2-.2,2.98-.2,7.34,0,12.43,3.7,16.15,6.4,1.75,1.27,3.72,2.71,4.69,2.71h.11c.62-.08,1.23-.12,1.81-.12,5.52,0,8.51,3.55,8.94,6.85.37,2.77-.79,5.42-3.18,7.27-1.66,1.29-3.89,2.15-6.44,2.48-8.54,1.13-22.6,8.73-44.21,35.37,38.03-26.74,76.33-43.14,112.17-47.87,2.69-.35,5.34-.53,7.89-.53,15.33,0,24.42,6.5,28.79,9.62.62.44,1.16.83,1.55,1.08.39.22.76.42,1.12.62,3.93,2.15,8.38,4.59,9.39,12.3,5.55,42.04-53,116.68-120.22,155.05,11.97,6.58,24.25,13.87,36.19,20.95,30.62,18.17,62.29,36.96,78.63,36.96.79,0,1.54-.05,2.24-.14,29.64-3.91,45.82-39.15,45.98-39.51l.24-.53.35-.46c.8-1.04,2.5-2.84,4.87-3.16.27-.04.53-.05.77-.05.83,0,4.99.27,5.7,5.62.36,2.77-.44,5.41-2.15,7.2-6.48,8.59-7.26,16.47-8.01,24.09-.66,6.64-1.33,13.5-5.98,19.55-10.48,13.66-28.02,36.53-58.19,40.51-1.41.19-2.87.28-4.36.28-24.88,0-56.9-26.03-90.8-53.59-17.01-13.83-34.58-28.11-50.73-38.45-7.16,2.13-14.07,3.61-21.04,4.53-2.24.3-4.51.45-6.74.45-18.46,0-32.65-10.06-33.85-19.09-1.53-11.58,16.98-27.96,34.14-30.22,1.49-.2,3.09-.3,4.74-.3,5.4,0,11.74,1.05,18.87,3.12,47.36-18.42,83.7-52.39,101.25-71.13,26.61-28.42,40-53.54,39.47-63.42-.53-.17-1.61-.4-3.58-.4-1.47,0-3.19.13-5.13.38-31.17,4.11-112.32,41.67-167.54,113.66-15.64,20.39-68.27,120.87-64.73,148.6.14.51.8,1.87,1.25,2.78,1.2,2.45,2.56,5.23,2.94,8.12.48,3.66-.8,6.06-1.96,7.44-1.72,2.04-4.28,3.25-7.81,3.72-.68.09-1.38.13-2.09.14l.03-.02Z"/>
    <path class="st0" d="M505.31,314.18c10.11,0,14.88,9.11,20.84,9.11.25,0,.5-.02.76-.05.41-.05.8-.08,1.16-.08,2.59,0,3.83,1.31,3.98,2.5.27,2.03-1.92,3.7-5.31,4.15-19.31,2.55-44,29.58-68.5,65.9,41.25-34.73,89-62.05,137.77-68.48,2.58-.34,4.99-.49,7.24-.49,16.1,0,24.17,7.76,27.79,10,4.47,2.51,7.35,3.51,8.11,9.27,5.36,40.65-55.78,117.98-125.75,154.43,46.33,24.4,99.62,62.88,125.31,62.88,1.01,0,1.97-.06,2.89-.18,32.86-4.33,49.89-42.42,49.89-42.42.59-.77,1.22-1.2,1.56-1.24h.12c.57,0,.66.64.74,1.27.13,1.02-.03,2.42-.95,3.23-13.53,17.64-5.67,32.8-14.2,43.92-10.29,13.42-26.76,34.89-54.87,38.6-1.21.16-2.44.24-3.7.24-35.91,0-93.27-62.8-140.8-92.49-7.61,2.38-14.97,4.04-22.43,5.03-2.09.28-4.12.4-6.09.4-16.49,0-28.13-8.99-28.89-14.74-1.03-7.79,14.59-22.6,29.84-24.61,1.3-.17,2.67-.25,4.09-.25,5.64,0,12.19,1.28,19.07,3.4,82.05-31.15,148.68-116.45,145.42-141.17-.37-2.78-3.42-4.06-8.48-4.06-1.71,0-3.64.15-5.78.43-32.86,4.33-115.27,43.12-170.85,115.58-15.88,20.7-69.64,122.56-65.71,152.37.31,2.37,3.69,7.09,4.18,10.82.36,2.71-.73,4.92-5.47,5.55-.47.06-.95.09-1.43.09-13.49,0-32.31-23.42-34.3-38.46-2.14-16.26,9.98-47.15,32.24-82.14,39.58-81.38,113.47-184.86,138.19-188.12.8-.11,1.58-.16,2.32-.16M505.31,304.18c-1.19,0-2.41.08-3.63.24-5.34.7-14.49,3.78-32.35,22.3-11.02,11.43-24.14,27.5-37.96,46.5-27.93,38.41-56.06,84.85-75.32,124.35-11.47,18.09-36.92,61.79-33.41,88.33,1.21,9.19,6.88,20.43,15.16,30.08,5.47,6.38,16.53,17.07,29.05,17.07.92,0,1.84-.06,2.74-.18,4.76-.63,8.45-2.46,10.98-5.45,1.81-2.14,3.82-5.85,3.1-11.32-.49-3.69-2.11-7-3.41-9.66-.26-.53-.63-1.28-.83-1.75-.4-4.94.82-22.8,24.63-73.45,3.16-6.73,6.42-13.38,9.66-19.76,5.11,10.27,20.55,18.17,37.16,18.17,2.45,0,4.93-.16,7.39-.49,6.51-.86,12.95-2.19,19.58-4.05,15.4,10.08,32.15,23.69,48.38,36.89,34.61,28.13,67.29,54.71,93.95,54.71,1.7,0,3.39-.11,5.01-.32,32.22-4.25,50.55-28.15,61.5-42.42,5.51-7.18,6.29-15.11,6.98-22.1.71-7.18,1.38-13.98,6.88-21.37,2.6-2.87,3.81-6.9,3.27-11.06-1.04-7.87-7.19-9.97-10.66-9.97-.48,0-.96.03-1.44.1-3.08.41-5.98,2.21-8.18,5.07l-.71.93-.48,1.07c-.14.31-15.26,33.05-42.07,36.59-.47.06-1.01.09-1.58.09-14.97,0-46.03-18.43-76.08-36.26-9.47-5.62-19.14-11.36-28.72-16.78,28.76-17.71,56.67-42.24,78.4-69.2,12.26-15.2,22.08-30.7,28.42-44.82,7.08-15.8,9.89-29.78,8.34-41.55-1.35-10.22-7.73-13.71-11.95-16.02-.31-.17-.62-.34-.95-.52-.29-.19-.78-.55-1.23-.86-4.79-3.43-14.76-10.55-31.7-10.55-2.77,0-5.64.19-8.55.58-17.71,2.34-35.92,7.38-54.38,15.05,1.41-2.41,2.01-5.19,1.64-8-.73-5.56-5.74-11.19-13.9-11.19-.42,0-.84.02-1.27.05-.65-.4-1.63-1.11-2.39-1.67-4.03-2.93-10.12-7.36-19.09-7.36h0l.02-.04ZM432.53,476.9c4.42-7.5,8.15-13.3,10.69-16.6,30.1-39.25,66.22-65.65,91.21-80.88,32.82-20,59.84-29.13,73.01-30.87.85-.11,1.64-.2,2.38-.25-1.02,3.71-3.31,9.34-7.84,16.99-7.04,11.9-17.27,25.15-29.6,38.32-17.06,18.22-52.18,51.08-97.86,69.28-6.92-1.89-13.17-2.85-18.6-2.85-1.88,0-3.69.11-5.4.34-5.93.78-12.17,3.07-17.98,6.52h-.01Z"/>
  </g>
  <g>
    <path class="st1" d="M48.65,404.8c7.06-37.59,25.44-53.83,53.53-48.55,18.8,3.53,28.87,15.72,32.82,32.49,13.23-15.6,38.25-19.6,77.42-28.27l-7.35,39.14c-44.92,11.25-67.95,11.97-70.81,27.22l-.71,3.76,63.46,11.92-6.85,36.49-149.71-28.11c.95-5.09,6.37-36.35,8.19-46.08ZM112.51,417.02c1.95-10.39-2.7-19.74-16.19-22.27-11.06-2.08-21.22.82-24.04,15.86l-1.54,8.18,40.02,7.51,1.74-9.29Z"/>
    <path class="st1" d="M138.86,197.74l23.1,14.41-31.68,50.78,27.68,17.27,26.32-42.19,20.45,17.8-24.06,38.56,32.64,20.37,33.35-53.45,23.1,14.41-53,84.94-129.23-80.64,51.34-82.27Z"/>
    <path class="st1" d="M245.44,132.89c-15.28,11.87-10.17,32.4,9.43,57.63,18.77,24.17,37.43,36.46,56.27,21.83,8.35-6.49,14.73-15.15,19.24-22.92l21.86,14.93c-4.94,8.68-14.1,20.36-28.5,31.54-36.43,28.29-69.44,19.17-98.97-18.86-28.57-36.78-31.72-76.79,4.53-104.94,19.01-14.77,33.6-14.7,46.29-12.3l-3.43,28.59c-12.79-2.89-20.48-.33-26.7,4.5Z"/>
    <path class="st1" d="M345.48,55l56.97,141.28-34.43,13.89-56.97-141.28,34.43-13.89Z"/>
    <path class="st1" d="M448.37,31.32c38.03-4.13,59.13,11,62.27,39.86,3.45,31.76-17.84,50.37-54.97,54.4l-6.71.73,6.29,57.93-36.91,4.01-16.45-151.43c4.47-.49,34.85-4.24,46.48-5.5ZM455.7,100.91c10.07-1.09,18.04-8.97,16.43-23.74-1.36-12.53-8.34-22.63-22.46-21.32-3.8.41-6.46.93-8.23,1.35l4.86,44.74,9.39-1.02Z"/>
    <path class="st1" d="M657.92,55l-6.57,26.42-58.08-14.44-7.87,31.66,48.26,12-10.61,24.95-44.11-10.97-9.28,37.34,61.14,15.2-6.57,26.42-97.17-24.16,36.75-147.83,94.11,23.4Z"/>
    <path class="st1" d="M687.08,111.25c14.92-22.23,44.13-22.95,66.36-8.02,17.93,12.04,29.36,28.93,33.88,40.36l-24.63,13.27c-3.66-7.06-10.66-22.06-20.19-28.46-8.59-5.77-15.65-4.54-19.29.87-4.96,8.6-2.3,17.15,9.06,34.54,14.34,21.83,18.04,37.31,5.25,56.37-15.43,22.98-44.9,29.74-72.17,11.43-19.43-13.04-30.1-31.86-35.43-43.3l24.89-15.27c1.92,4.81,11.89,26.68,21.79,33.33,10.46,7.02,18.52,5.11,24.54-3.85s1.87-16.9-6.15-28.79c-15.65-23.51-21.45-42.32-7.91-62.49Z"/>
  </g>
</svg>